<?xml version="1.0"?>
<!-- Generated by SVGo -->
<svg width="260" height="260"
     xmlns="http://www.w3.org/2000/svg"
     xmlns:xlink="http://www.w3.org/1999/xlink">
<g transform="translate(10, 10)">
<g style="stroke:black;stroke-linecap:round">
<line x1="20" y1="0" x2="240" y2="0" />
<line x1="20" y1="20" x2="40" y2="20" />
<line x1="100" y1="20" x2="120" y2="20" />
<line x1="180" y1="20" x2="200" y2="20" />
<line x1="40" y1="40" x2="100" y2="40" />
<line x1="120" y1="40" x2="140" y2="40" />
<line x1="200" y1="40" x2="240" y2="40" />
<line x1="20" y1="60" x2="60" y2="60" />
<line x1="100" y1="60" x2="200" y2="60" />
<line x1="40" y1="80" x2="60" y2="80" />
<line x1="80" y1="80" x2="100" y2="80" />
<line x1="20" y1="100" x2="80" y2="100" />
<line x1="100" y1="100" x2="140" y2="100" />
<line x1="180" y1="100" x2="220" y2="100" />
<line x1="20" y1="120" x2="40" y2="120" />
<line x1="60" y1="120" x2="120" y2="120" />
<line x1="140" y1="120" x2="200" y2="120" />
<line x1="0" y1="140" x2="60" y2="140" />
<line x1="80" y1="140" x2="100" y2="140" />
<line x1="120" y1="140" x2="140" y2="140" />
<line x1="160" y1="140" x2="180" y2="140" />
<line x1="200" y1="140" x2="220" y2="140" />
<line x1="20" y1="160" x2="40" y2="160" />
<line x1="100" y1="160" x2="120" y2="160" />
<line x1="180" y1="160" x2="220" y2="160" />
<line x1="80" y1="180" x2="100" y2="180" />
<line x1="120" y1="180" x2="140" y2="180" />
<line x1="160" y1="180" x2="200" y2="180" />
<line x1="220" y1="180" x2="240" y2="180" />
<line x1="60" y1="200" x2="120" y2="200" />
<line x1="160" y1="200" x2="180" y2="200" />
<line x1="200" y1="200" x2="220" y2="200" />
<line x1="40" y1="220" x2="100" y2="220" />
<line x1="140" y1="220" x2="160" y2="220" />
<line x1="180" y1="220" x2="200" y2="220" />
<line x1="220" y1="220" x2="240" y2="220" />
<line x1="0" y1="240" x2="220" y2="240" />
<line x1="0" y1="0" x2="0" y2="240" />
<line x1="20" y1="20" x2="20" y2="60" />
<line x1="20" y1="80" x2="20" y2="120" />
<line x1="20" y1="160" x2="20" y2="220" />
<line x1="40" y1="0" x2="40" y2="20" />
<line x1="40" y1="160" x2="40" y2="220" />
<line x1="60" y1="20" x2="60" y2="40" />
<line x1="60" y1="60" x2="60" y2="80" />
<line x1="60" y1="120" x2="60" y2="140" />
<line x1="60" y1="160" x2="60" y2="200" />
<line x1="80" y1="0" x2="80" y2="20" />
<line x1="80" y1="40" x2="80" y2="100" />
<line x1="80" y1="140" x2="80" y2="180" />
<line x1="100" y1="20" x2="100" y2="40" />
<line x1="100" y1="80" x2="100" y2="100" />
<line x1="100" y1="120" x2="100" y2="140" />
<line x1="100" y1="180" x2="100" y2="200" />
<line x1="100" y1="220" x2="100" y2="240" />
<line x1="120" y1="40" x2="120" y2="80" />
<line x1="120" y1="140" x2="120" y2="180" />
<line x1="120" y1="200" x2="120" y2="220" />
<line x1="140" y1="20" x2="140" y2="40" />
<line x1="140" y1="80" x2="140" y2="140" />
<line x1="140" y1="160" x2="140" y2="220" />
<line x1="160" y1="0" x2="160" y2="40" />
<line x1="160" y1="60" x2="160" y2="100" />
<line x1="160" y1="140" x2="160" y2="180" />
<line x1="160" y1="200" x2="160" y2="220" />
<line x1="180" y1="20" x2="180" y2="60" />
<line x1="180" y1="80" x2="180" y2="120" />
<line x1="180" y1="140" x2="180" y2="160" />
<line x1="180" y1="220" x2="180" y2="240" />
<line x1="200" y1="0" x2="200" y2="20" />
<line x1="200" y1="60" x2="200" y2="80" />
<line x1="200" y1="120" x2="200" y2="140" />
<line x1="200" y1="180" x2="200" y2="220" />
<line x1="220" y1="20" x2="220" y2="100" />
<line x1="220" y1="120" x2="220" y2="140" />
<line x1="240" y1="0" x2="240" y2="240" />
</g>
</g>
</svg>
